<svg version="1.1" id="Layer_1" xmlns="http://www.w3.org/2000/svg" x="0" y="0" width="783.2" height="336.3" viewBox="0 0 783.2 336.3" xml:space="preserve"><style>.st0{fill:#ff6a39}</style><path class="st0" d="M47.6 231.3l50.9-51.2H57.3l-50 49.4v-73.8h29.6L80.5 23.9H47l-26.2 91.2h-.6L7.3 70.9V-.5H0v336.3h7.3V270l18-17.7 39.3 59.2h38.7l-55.7-80.2z"/><path class="st0" d="M189.7-.5v32.9c-10.7-7.3-24.1-11.6-40.3-11.6-42.7.1-67.4 29.7-67.4 69s24.7 68.9 67.4 68.9c16.2 0 29.6-4.3 40.3-11.6v31.4c-6.7-1.2-14-1.5-21-1.5-29 0-56.1 11.9-56.1 43l31.7 1.2c0-14.3 6.1-19.8 24.4-19.8 8.8 0 16.8 1.5 21 6.1v15.9c-8.5 2.4-20.7 4.6-30.5 6.7l-13.1 2.7c-19.5 4-39.9 15.2-39.9 41.2 0 25.6 19.8 41.5 44.8 41.5 14.6 0 27.7-4.3 39-12.2v33.5h7.3V-.5h-7.6zm-40.3 129.9c-22.6 0-34.2-19.2-34.2-39.6s11.6-39.6 34.2-39.6 34.2 19.2 34.2 39.6-11.6 39.6-34.2 39.6zm10.4 159.2c-11.6 0-20.4-6.4-20.4-16.5 0-12.5 9.8-15.9 22-18.3l17.4-3.7c4-.6 7.9-1.8 11.3-3.1v29c-6.8 9-19.6 12.6-30.3 12.6z"/><path d="M233.3 24.8H246l5.5 23c1.4 5.5 2.5 10.6 4 16.1h.3c1.5-5.5 2.6-10.6 4-16.1l6-23H278l-15.4 50.4h-14.5l-14.8-50.4zm48.9 38V21.1h11.9v42.1c0 2.5 1.2 3.3 2.2 3.3.5 0 .8 0 1.4-.2l1.4 8.8c-1.3.5-3.3 1-6 1-8.1.1-10.9-5.3-10.9-13.3zm20.8 1.7c0-8.1 6.3-12.6 21.5-14.1-.3-3.2-1.9-5-5.9-5-3.1 0-6.2 1.1-10.1 3.3l-4.2-7.7c5-3.1 10.5-5 16.6-5 9.9 0 15.5 5.5 15.5 17.6v21.8h-9.8l-.9-3.9h-.3c-3.2 2.9-6.7 4.8-11 4.8-7-.1-11.4-5.4-11.4-11.8zm21.5-.7v-6.1c-7.7 1-10 3.1-10 5.8 0 2.2 1.5 3.3 4.1 3.3 2.4.1 4-1.1 5.9-3zm19.6.7c0-8.1 6.3-12.6 21.5-14.1-.3-3.2-1.9-5-5.9-5-3.1 0-6.2 1.1-10.1 3.3l-4.2-7.7c5-3.1 10.5-5 16.6-5 9.9 0 15.5 5.5 15.5 17.6v21.8h-9.8l-.9-3.9h-.3c-3.2 2.9-6.7 4.8-11 4.8-7-.1-11.4-5.4-11.4-11.8zm21.4-.7v-6.1c-7.7 1-10 3.1-10 5.8 0 2.2 1.5 3.3 4.1 3.3 2.5.1 4.1-1.1 5.9-3zm21.4-27.1h9.8l.9 4.8h.3c3.1-3.1 6.5-5.7 11.6-5.7 5.3 0 8.7 2.2 10.6 6.4 3.3-3.4 6.9-6.4 12-6.4 8.4 0 12.1 6 12.1 15.6v23.9h-11.9V52.9c0-5.3-1.5-7-4.5-7-1.9 0-3.9 1.2-6.2 3.5v25.8h-12V52.9c0-5.3-1.4-7-4.5-7-1.8 0-3.9 1.2-6.2 3.5v25.8H387l-.1-38.5zm63.3 33.7l5-6.7c3.6 2.8 7 3.7 10.1 3.7 3.3 0 4.6-1.2 4.6-3 0-2.3-3.3-3.3-7.4-4.9-5.5-2-10.1-5.5-10.1-11.5 0-7.3 5.9-12.2 14.9-12.2 5.7 0 10.5 2.1 13.8 4.9l-5.1 6.7c-2.8-2-5.7-2.8-8.3-2.8-2.8 0-4.1 1.1-4.1 2.8 0 2 2.2 2.9 7 4.5 5.9 1.9 10.5 5.3 10.5 11.7 0 7-5.6 12.6-16 12.6-5.1 0-11-2-14.9-5.8zm-211.4 45.4h9.8l.9 4.8h.3c3.2-3.1 7-5.7 12.3-5.7 8.4 0 11.9 6 11.9 15.6v23.9h-12V132c0-5.3-1.4-7-4.5-7-2.7 0-4.3 1.3-6.7 3.5v25.8h-11.9l-.1-38.5zm42.4 19.3c0-12.5 9-20.1 18.2-20.1 11.2 0 16.6 8.1 16.6 18.5 0 2.2-.2 4.2-.5 5.3h-22.7c1.1 5.2 4.7 7.4 9.6 7.4 2.8 0 5.6-.9 8.3-2.4l3.9 7.2c-4 2.9-9.3 4.3-13.9 4.3-11 0-19.5-7.4-19.5-20.2zm24.5-4.5c0-3.8-1.7-6.7-6-6.7-3.4 0-6.3 2.2-7 6.7h13zm18.8 9.5v-14.9h-5.2v-9l5.9-.4 1.4-11.8h9.9v11.8h9.1v9.4h-9.1v14.7c0 4.3 2 6 4.9 6 1.2 0 2.6-.2 3.6-.5l1.9 8.4c-2 .8-5 1.5-8.8 1.5-9.7 0-13.6-6.1-13.6-15.2zm25.5-24.3h11.9l3.5 17.4c.6 3.7 1.1 7.4 1.6 11.6h.3c.7-4.2 1.3-8 2.2-11.6l4-17.4H384l4.1 17.4c.9 3.7 1.5 7.4 2.2 11.6h.3c.7-4.2 1-7.9 1.7-11.6l3.4-17.4h11.1l-9.1 38.5h-14.3l-3.1-14.8c-.7-3.6-1.3-7-1.9-11.4h-.3c-.6 4.4-1.1 7.8-1.8 11.4l-3 14.8h-13.9l-9.4-38.5zm60.9 19.3c0-12.5 9-20.1 18.2-20.1 11.2 0 16.6 8.1 16.6 18.5 0 2.2-.2 4.2-.5 5.3h-22.7c1.1 5.2 4.7 7.4 9.6 7.4 2.8 0 5.6-.9 8.3-2.4l3.9 7.2c-4 2.9-9.3 4.3-13.9 4.3-11 0-19.5-7.4-19.5-20.2zm24.5-4.5c0-3.8-1.7-6.7-6-6.7-3.4 0-6.3 2.2-7 6.7h13zm17.9-14.8h9.8l.9 6.7h.3c2.8-5.2 7-7.6 10.9-7.6 2.2 0 3.6.2 4.6.8l-2.2 10.1c-1.4-.3-2.2-.5-4-.5-2.9 0-6.4 1.9-8.4 7v22h-11.9v-38.5zm31.4-15.6h11.9v30.2h.2l11.5-14.6h13.2l-13.4 16 14.3 22.5h-13l-8.4-14.6-4.4 5.1v9.5h-11.9v-54.1zm54.5 15.6h12l4.8 17.7c.9 3.8 1.9 7.8 2.9 11.9h.3c1-4 2-8.1 2.9-11.9l4.7-17.7h11.5l-12.4 38.5H552l-12.8-38.5zm41.7 27.8c0-8.1 6.3-12.6 21.5-14.1-.3-3.2-1.9-5-5.9-5-3.1 0-6.2 1.1-10.1 3.3l-4.2-7.7c5-3.1 10.5-5 16.6-5 9.9 0 15.5 5.5 15.5 17.6v21.8h-9.8l-.9-3.9h-.3c-3.2 2.9-6.7 4.8-11 4.8-6.9-.1-11.4-5.4-11.4-11.8zm21.5-.6v-6.1c-7.7 1-10 3.1-10 5.8 0 2.2 1.5 3.3 4.1 3.3 2.4 0 4-1.2 5.9-3zm21.3-27.2h9.8l.9 4.8h.3c3.2-3.1 7-5.7 12.3-5.7 8.4 0 11.9 6 11.9 15.6v23.9h-12V132c0-5.3-1.4-7-4.5-7-2.7 0-4.3 1.3-6.7 3.5v25.8h-11.9v-38.5h-.1zm-387.1 95.8c0-12.8 9.1-20.1 18.8-20.1 9.8 0 18.9 7.4 18.9 20.1 0 12.8-9.1 20.2-18.9 20.2-9.7 0-18.8-7.4-18.8-20.2zm25.4 0c0-6.4-2.1-10.5-6.6-10.5s-6.6 4.2-6.6 10.5c0 6.4 2.1 10.5 6.6 10.5s6.6-4.1 6.6-10.5zm19.9-19.2h9.8l.9 4.8h.3c3.2-3.1 7-5.7 12.3-5.7 8.4 0 11.9 6 11.9 15.6V231h-12v-22.3c0-5.3-1.4-7-4.5-7-2.7 0-4.3 1.3-6.7 3.5V231H282l-.1-38.6zm42.7 19.2c0-12.6 7.9-20.1 15.9-20.1 4.3 0 6.8 1.5 9.3 4l-.4-5.7v-12.9h12v54.2h-9.8l-.9-3.7h-.2c-2.7 2.7-6.5 4.6-10.1 4.6-9.6-.2-15.8-7.8-15.8-20.4zm24.7 7.2v-15.3c-1.9-1.6-4.1-2.2-6-2.2-3.4 0-6.4 3.1-6.4 10.3 0 7.4 2.5 10.5 6.6 10.5 2.3-.1 4.1-.9 5.8-3.3zm19.6-7.2c0-12.5 9-20.1 18.2-20.1 11.2 0 16.6 8.1 16.6 18.5 0 2.2-.2 4.2-.5 5.3h-22.7c1.1 5.2 4.7 7.4 9.6 7.4 2.8 0 5.6-.9 8.3-2.4l3.9 7.2c-4 2.9-9.3 4.3-13.9 4.3-11 0-19.5-7.3-19.5-20.2zm24.5-4.4c0-3.8-1.7-6.7-6-6.7-3.4 0-6.3 2.2-7 6.7h13zm17.9-14.8h9.8l.9 6.7h.3c2.8-5.2 7-7.6 10.9-7.6 2.2 0 3.6.2 4.6.8l-2.2 10.1c-1.4-.3-2.2-.5-4-.5-2.9 0-6.4 1.9-8.4 7v22h-11.9v-38.5zm31.4 0h9.8l.9 4.8h.3c3.2-3.1 7-5.7 12.3-5.7 8.4 0 11.9 6 11.9 15.6V231h-12v-22.3c0-5.3-1.4-7-4.5-7-2.7 0-4.3 1.3-6.7 3.5V231h-11.9v-38.6h-.1zm42.4 19.2c0-12.5 9-20.1 18.2-20.1 11.2 0 16.6 8.1 16.6 18.5 0 2.2-.2 4.2-.5 5.3h-22.7c1.1 5.2 4.7 7.4 9.6 7.4 2.8 0 5.6-.9 8.3-2.4l3.9 7.2c-4 2.9-9.3 4.3-13.9 4.3-11 0-19.5-7.3-19.5-20.2zm24.6-4.4c0-3.8-1.7-6.7-6-6.7-3.4 0-6.3 2.2-7 6.7h13zm17.9-14.8h9.8l.9 4.8h.3c3.1-3.1 6.5-5.7 11.6-5.7 5.3 0 8.7 2.2 10.6 6.4 3.3-3.4 6.9-6.4 12-6.4 8.4 0 12.1 6 12.1 15.6V231H573v-22.3c0-5.3-1.5-7-4.5-7-1.9 0-3.9 1.2-6.2 3.5V231h-12v-22.3c0-5.3-1.4-7-4.5-7-1.8 0-3.9 1.2-6.2 3.5V231h-11.9l-.1-38.6zm65.9-11.6c0-3.7 2.8-6.1 6.7-6.1 3.9 0 6.7 2.4 6.7 6.1 0 3.8-2.8 6.2-6.7 6.2-3.9 0-6.7-2.4-6.7-6.2zm.8 11.6h11.9v38.5h-11.9v-38.5zm21.7 0h9.8l.9 4.8h.3c3.2-3.1 7-5.7 12.3-5.7 8.4 0 11.9 6 11.9 15.6V231h-12v-22.3c0-5.3-1.4-7-4.5-7-2.7 0-4.3 1.3-6.7 3.5V231h-12v-38.6zm42.2 45c0-3.2 1.9-5.7 5.4-7.6v-.3c-2-1.4-3.5-3.4-3.5-6.6 0-2.7 1.8-5.5 4.3-7.3v-.3c-2.7-1.9-5.2-5.4-5.2-9.9 0-9.4 7.7-13.9 16.1-13.9 2.2 0 4.3.3 6 .9h14.2v8.7h-6c.6 1.1 1.2 2.9 1.2 4.7 0 9-6.8 12.9-15.3 12.9-1.3 0-2.9-.2-4.6-.7-.9.8-1.2 1.4-1.2 2.6 0 1.9 1.6 2.7 5.7 2.7h6.1c9.5 0 14.9 2.9 14.9 9.8 0 8.1-8.4 13.9-21.8 13.9-9.1.1-16.3-2.7-16.3-9.6zm26.5-2.1c0-2.3-2-2.8-5.7-2.8h-3.7c-2.8 0-4.3-.2-5.4-.5-1.2 1.1-1.9 2.2-1.9 3.4 0 2.8 3.3 4.2 8.2 4.2 4.9.1 8.5-1.8 8.5-4.3zm-4.5-29.9c0-4-2-6-4.9-6-2.9 0-4.9 2-4.9 6s2.1 6.1 4.9 6.1c2.9 0 4.9-2.1 4.9-6.1zm18.4 6.2c0-12.5 9-20.1 18.2-20.1 11.2 0 16.6 8.1 16.6 18.5 0 2.2-.2 4.2-.5 5.3h-22.7c1.1 5.2 4.7 7.4 9.6 7.4 2.8 0 5.6-.9 8.3-2.4l3.9 7.2c-4 2.9-9.3 4.3-13.9 4.3-10.9 0-19.5-7.3-19.5-20.2zm24.6-4.4c0-3.8-1.7-6.7-6-6.7-3.4 0-6.3 2.2-7 6.7h13zm17.9-14.8h9.8l.9 4.8h.3c3.2-3.1 7-5.7 12.3-5.7 8.4 0 11.9 6 11.9 15.6V231h-12v-22.3c0-5.3-1.4-7-4.5-7-2.7 0-4.3 1.3-6.7 3.5V231h-11.9v-38.6h-.1z" fill="#484344"/></svg>